# xmcd
#
# Track frame offsets:
#  150
#  12680
#  26187
#  36347
#  50052
#  62730
#  76927
#  85697
#  100772
#  109272
#  123490
#  134262
#
# Disc length: 1978 seconds
#
# Revision: 0
# Processed by: cddbd v1.4PL0 Copyright (c) Steve Scherf et al.
# Submitted via: AltoMP3_Maker 3.0
#
DISCID=a307b80c
DTITLE=Pearl Bailey - The Best of Pearl Bailey with Louis Bellson and His Orchestra
DYEAR=1900
DGENRE=
TTITLE0=Takes Two To Tango
TTITLE1=That's Good Enough For Me
TTITLE2=Row, Row, Row
TTITLE3=Legalize My Name
TTITLE4=Fifteen Years (And I'm Still Serving Time)
TTITLE5=Old, Tired and Torn
TTITLE6=St. Louis Blues
TTITLE7=Tired
TTITLE8=Ma (He's Makin' Eyes At Me)
TTITLE9=Ac-Cent-Tchu-Ate The Positive
TTITLE10=Toot Toot Tootsie! (Goodbye)
TTITLE11=Cherry's At The Top Of The Tree
EXTD=
EXTT0=
EXTT1=
EXTT2=
EXTT3=
EXTT4=
EXTT5=
EXTT6=
EXTT7=
EXTT8=
EXTT9=
EXTT10=
EXTT11=
PLAYORDER=
